<svg width="23" height="23" viewBox="0 0 23 23" fill="none" xmlns="http://www.w3.org/2000/svg">
<path fill-rule="evenodd" clip-rule="evenodd" d="M22.104 3.97891C22.8851 3.19786 22.8851 1.93153 22.104 1.15048C21.323 0.369435 20.0567 0.369435 19.2756 1.15048L11.6251 8.80095L3.97468 1.15049C3.19363 0.369442 1.9273 0.369442 1.14625 1.15049C0.365204 1.93154 0.365204 3.19787 1.14625 3.97892L8.79671 11.6294L1.14585 19.2802C0.364796 20.0613 0.364796 21.3276 1.14585 22.1087C1.92689 22.8897 3.19322 22.8897 3.97427 22.1087L11.6251 14.4578L19.276 22.1087C20.0571 22.8897 21.3234 22.8897 22.1044 22.1087C22.8855 21.3276 22.8855 20.0613 22.1044 19.2803L14.4536 11.6294L22.104 3.97891Z" fill="#C0250C"/>
</svg>
