<svg width="210" height="54" viewBox="0 0 210 54" fill="none" xmlns="http://www.w3.org/2000/svg">
<path d="M47.736 46L47.628 8.2H38.826L25.866 30.016L12.582 8.2H3.78V46H13.662V26.506L23.328 42.274H28.08L37.8 25.966L37.908 46H47.736Z" fill="#BD210A"/>
<path d="M86.192 28.72C83.472 28.72 81.168 29.808 79.792 31.568C78.608 29.648 76.528 28.72 74.032 28.72C71.696 28.72 69.712 29.552 68.432 31.088V28.912H64.624V46H68.624V37.328C68.624 33.936 70.416 32.208 73.072 32.208C75.504 32.208 76.912 33.68 76.912 36.72V46H80.912V37.328C80.912 33.936 82.736 32.208 85.36 32.208C87.792 32.208 89.2 33.68 89.2 36.72V46H93.2V36.208C93.2 31.056 90.32 28.72 86.192 28.72ZM110.856 28.912V37.552C110.856 40.976 108.968 42.704 106.184 42.704C103.656 42.704 102.184 41.232 102.184 38.128V28.912H98.1835V38.672C98.1835 43.824 101.16 46.224 105.544 46.224C107.752 46.224 109.768 45.392 111.048 43.824V46H114.856V28.912H110.856ZM125.373 46.224C130.173 46.224 133.117 44.144 133.117 40.944C133.117 34.256 122.557 37.328 122.557 33.872C122.557 32.752 123.709 31.952 126.141 31.952C127.773 31.952 129.405 32.272 131.037 33.232L132.573 30.192C131.037 29.264 128.445 28.72 126.173 28.72C121.565 28.72 118.653 30.832 118.653 34.064C118.653 40.88 129.213 37.808 129.213 41.072C129.213 42.256 128.157 42.96 125.629 42.96C123.485 42.96 121.181 42.256 119.677 41.264L118.141 44.304C119.677 45.392 122.525 46.224 125.373 46.224ZM152.626 37.552C152.626 32.208 148.978 28.72 143.986 28.72C138.898 28.72 135.154 32.368 135.154 37.456C135.154 42.544 138.866 46.224 144.594 46.224C147.538 46.224 149.938 45.264 151.474 43.44L149.33 40.976C148.114 42.224 146.61 42.832 144.69 42.832C141.714 42.832 139.634 41.232 139.154 38.736H152.562C152.594 38.352 152.626 37.872 152.626 37.552ZM143.986 31.92C146.61 31.92 148.498 33.616 148.818 36.08H139.122C139.506 33.584 141.394 31.92 143.986 31.92ZM169.012 28.912V37.552C169.012 40.976 167.124 42.704 164.34 42.704C161.812 42.704 160.34 41.232 160.34 38.128V28.912H156.34V38.672C156.34 43.824 159.316 46.224 163.7 46.224C165.908 46.224 167.924 45.392 169.204 43.824V46H173.012V28.912H169.012ZM199.817 28.72C197.097 28.72 194.793 29.808 193.417 31.568C192.233 29.648 190.153 28.72 187.657 28.72C185.321 28.72 183.337 29.552 182.057 31.088V28.912H178.249V46H182.249V37.328C182.249 33.936 184.041 32.208 186.697 32.208C189.129 32.208 190.537 33.68 190.537 36.72V46H194.537V37.328C194.537 33.936 196.361 32.208 198.985 32.208C201.417 32.208 202.825 33.68 202.825 36.72V46H206.825V36.208C206.825 31.056 203.945 28.72 199.817 28.72Z" fill="#BD210A"/>
</svg>
